<?xml version="1.0" standalone="no"?>
<!DOCTYPE svg PUBLIC "-//W3C//DTD SVG 20010904//EN"
 "http://www.w3.org/TR/2001/REC-SVG-20010904/DTD/svg10.dtd">
<svg version="1.0" xmlns="http://www.w3.org/2000/svg"
 width="512.000000pt" height="512.000000pt" viewBox="0 0 512.000000 512.000000"
 preserveAspectRatio="xMidYMid meet">

<g transform="translate(0.000000,512.000000) scale(0.100000,-0.100000)"
fill="#000000" stroke="none">
<path d="M3380 4585 c-382 -49 -929 -183 -1572 -386 -135 -43 -159 -53 -164
-73 -3 -14 55 -223 155 -556 88 -294 157 -538 153 -541 -4 -4 -198 -64 -432
-134 -532 -158 -577 -173 -583 -190 -7 -17 -6 -24 73 -285 38 -124 105 -349
150 -500 45 -151 86 -283 91 -292 6 -10 20 -18 32 -18 12 0 244 66 514 147
271 80 495 144 499 141 3 -3 74 -236 159 -517 84 -282 159 -518 165 -526 18
-21 34 -19 193 21 641 161 1194 343 1492 492 178 88 272 164 301 238 37 97 2
353 -107 774 -55 213 -66 243 -91 248 -9 2 -244 -65 -523 -148 -279 -84 -509
-149 -512 -147 -5 6 -283 931 -280 934 1 1 178 54 392 118 603 180 625 187
636 207 7 13 -14 91 -86 315 -151 469 -177 531 -252 608 -76 79 -184 97 -403
70z m257 -90 c61 -18 113 -71 151 -153 22 -50 234 -694 229 -698 -6 -5 -949
-285 -952 -282 -2 2 -70 224 -150 493 -81 269 -150 495 -152 502 -6 15 28 24
242 68 184 37 475 83 541 84 22 1 63 -6 91 -14z m-811 -669 c80 -268 142 -492
137 -496 -4 -4 -210 -67 -456 -140 -328 -98 -450 -131 -456 -122 -19 32 -303
1004 -295 1012 16 15 620 195 854 253 49 12 56 12 62 -2 4 -9 73 -236 154
-505z m203 -683 c127 -417 250 -837 246 -842 -3 -3 -210 -67 -460 -142 l-454
-136 -10 31 c-41 129 -271 909 -269 911 4 2 901 273 910 274 4 1 21 -43 37
-96z m-899 -678 c77 -258 139 -469 137 -470 -8 -6 -943 -282 -945 -280 -8 7
-281 930 -276 935 5 5 937 288 941 285 2 -1 66 -212 143 -470z m2293 -172 c99
-400 126 -596 93 -661 -40 -77 -281 -209 -596 -325 -96 -36 -185 -68 -197 -71
-20 -6 -24 0 -47 76 -128 424 -276 922 -274 924 6 5 934 282 949 283 12 1 28
-47 72 -226z m-1094 -150 c226 -755 279 -938 273 -944 -20 -18 -910 -266 -918
-256 -5 8 -296 989 -293 991 4 3 899 273 911 275 4 0 16 -29 27 -66z"/>
<path d="M3250 4203 c-59 -38 -108 -123 -91 -159 8 -18 19 -24 41 -24 24 0 33
7 50 39 38 75 106 104 145 61 15 -16 17 -31 12 -86 -4 -55 -15 -86 -66 -188
-34 -66 -61 -128 -61 -137 0 -21 32 -49 56 -49 11 0 74 18 139 40 134 45 165
68 142 104 -20 30 -42 30 -124 2 -40 -14 -73 -23 -73 -22 0 2 13 32 30 67 72
156 76 262 10 332 -35 38 -42 41 -101 45 -57 3 -69 0 -109 -25z"/>
<path d="M2296 3978 c-19 -18 -37 -65 -76 -201 -50 -170 -51 -179 -35 -203 25
-38 40 -39 131 -12 47 14 86 23 88 19 2 -3 13 -36 25 -73 22 -67 38 -83 72
-73 28 9 33 47 15 108 -21 73 -21 74 19 87 36 12 51 37 40 69 -8 27 -32 33
-72 20 -19 -6 -36 -9 -37 -7 -1 1 -18 57 -37 123 -33 118 -60 165 -93 165 -8
0 -26 -10 -40 -22z m55 -304 c-14 -6 -36 -15 -48 -18 -22 -7 -22 -7 -8 41 8
26 20 66 26 88 l12 40 22 -70 21 -70 -25 -11z"/>
<path d="M2625 2941 c-45 -11 -69 -26 -103 -65 -66 -76 -62 -173 10 -244 39
-39 40 -40 24 -70 -56 -108 35 -242 163 -242 204 0 313 229 161 339 -29 21
-35 31 -29 46 35 91 -32 205 -136 234 -44 12 -47 12 -90 2z m110 -116 c18 -17
25 -35 25 -64 0 -54 -34 -81 -101 -81 -39 0 -51 4 -68 26 -30 38 -27 80 8 115
39 39 100 41 136 4z m112 -265 c17 -34 16 -50 -6 -86 -41 -66 -142 -82 -188
-29 -31 36 -29 59 10 101 53 58 158 65 184 14z"/>
<path d="M1528 2593 c-38 -46 -118 -186 -118 -208 0 -27 31 -49 58 -41 10 3
32 30 50 58 17 29 32 50 32 47 0 -3 20 -73 45 -155 25 -82 45 -152 45 -155 0
-4 -27 -14 -59 -23 -65 -18 -84 -34 -79 -67 6 -40 29 -45 115 -20 231 67 274
83 285 107 9 20 8 28 -8 45 -20 22 -30 22 -115 -5 l-46 -14 -58 196 c-32 109
-64 209 -72 225 -16 32 -52 36 -75 10z"/>
<path d="M3935 2184 c-43 -22 -64 -44 -86 -86 -25 -49 -24 -84 1 -98 31 -17
55 -4 75 41 33 71 105 90 156 40 49 -50 34 -97 -43 -137 -71 -36 -87 -71 -45
-99 18 -11 31 -12 57 -5 109 31 170 -23 125 -109 -27 -53 -132 -76 -166 -35
-14 17 -51 18 -67 2 -30 -30 0 -84 61 -107 75 -29 191 7 242 74 33 43 44 122
25 179 -10 32 -53 79 -80 88 -7 2 -4 18 6 46 14 35 15 49 5 82 -15 50 -65 109
-108 126 -43 19 -121 17 -158 -2z"/>
<path d="M2892 1849 c-71 -36 -112 -108 -112 -196 0 -45 48 -220 73 -270 67
-128 257 -139 351 -21 68 86 34 222 -69 275 -48 26 -129 19 -196 -15 l-58 -30
-7 33 c-20 110 82 187 186 140 39 -17 41 -17 60 0 12 11 20 28 18 38 -9 61
-161 89 -246 46z m223 -313 c49 -49 41 -110 -20 -148 -56 -34 -131 -15 -160
42 -44 85 110 176 180 106z"/>
<path d="M1320 4313 c-833 -291 -927 -349 -938 -589 -6 -118 7 -178 119 -554
105 -355 106 -358 129 -365 16 -5 157 33 355 95 50 16 230 70 400 121 171 50
318 96 328 101 26 13 22 41 -38 237 -30 100 -102 340 -159 534 -58 194 -110
366 -116 382 -16 42 -38 53 -80 38z m-166 -449 c20 -19 21 -48 2 -63 -7 -6
-60 -25 -117 -42 -57 -17 -107 -34 -111 -38 -6 -5 8 -79 17 -89 1 -2 18 6 36
16 76 44 169 35 237 -24 51 -44 72 -89 72 -158 0 -93 -42 -156 -132 -196 -102
-45 -188 -30 -214 36 -24 58 31 99 71 54 23 -25 58 -25 112 -1 66 30 91 98 58
161 -22 42 -53 60 -104 60 -41 0 -49 -4 -93 -51 -72 -77 -84 -70 -129 67 -45
137 -51 165 -40 183 8 12 267 99 303 100 9 1 24 -6 32 -15z"/>
<path d="M4130 3503 c-190 -58 -351 -109 -357 -115 -7 -6 -13 -18 -13 -27 0
-9 45 -169 101 -356 69 -231 107 -345 120 -357 18 -15 24 -15 72 -2 288 84
665 199 675 207 26 20 23 34 -110 462 -44 143 -87 268 -96 278 -8 9 -22 17
-31 16 -9 -1 -171 -48 -361 -106z"/>
<path d="M1735 1519 c-535 -161 -523 -157 -530 -179 -7 -22 107 -415 154 -527
68 -165 164 -252 312 -284 36 -8 69 -6 141 7 87 15 512 108 551 120 43 13 40
28 -94 480 -72 242 -137 449 -145 462 -8 12 -24 22 -37 21 -12 0 -170 -45
-352 -100z m122 -215 c23 -13 54 -40 68 -58 62 -81 92 -248 60 -331 -43 -114
-169 -168 -278 -119 -67 30 -59 102 10 90 18 -3 49 -9 68 -12 62 -11 125 53
125 127 0 48 -8 53 -42 24 -82 -69 -238 -42 -282 49 -20 42 -21 128 -2 164 50
96 171 125 273 66z"/>
<path d="M1685 1215 c-56 -55 -16 -135 67 -135 44 0 81 31 93 78 5 22 1 32
-24 54 -42 37 -101 39 -136 3z"/>
</g>
</svg>
